<svg xmlns="http://www.w3.org/2000/svg" viewBox="0 0 640 360" role="img" aria-label="Breakthrough board preview">
  <rect width="640" height="360" fill="#f4f6f8"/>
  <g>
    <rect x="128" y="40" width="48" height="48" fill="#d8dfd2"/>
    <rect x="176" y="40" width="48" height="48" fill="#ffffff"/>
    <rect x="224" y="40" width="48" height="48" fill="#d8dfd2"/>
    <rect x="272" y="40" width="48" height="48" fill="#ffffff"/>
    <rect x="128" y="88" width="48" height="48" fill="#ffffff"/>
    <rect x="176" y="88" width="48" height="48" fill="#d8dfd2"/>
    <rect x="224" y="88" width="48" height="48" fill="#ffffff"/>
    <rect x="272" y="88" width="48" height="48" fill="#d8dfd2"/>
    <rect x="128" y="136" width="48" height="48" fill="#d8dfd2"/>
    <rect x="176" y="136" width="48" height="48" fill="#ffffff"/>
    <rect x="224" y="136" width="48" height="48" fill="#d8dfd2"/>
    <rect x="272" y="136" width="48" height="48" fill="#ffffff"/>
    <rect x="128" y="184" width="48" height="48" fill="#ffffff"/>
    <rect x="176" y="184" width="48" height="48" fill="#d8dfd2"/>
    <rect x="224" y="184" width="48" height="48" fill="#ffffff"/>
    <rect x="272" y="184" width="48" height="48" fill="#d8dfd2"/>
  </g>
  <g font-family="Arial, sans-serif" font-size="34" font-weight="700" text-anchor="middle">
    <text x="152" y="78" fill="#b74f2a">▼</text>
    <text x="200" y="126" fill="#b74f2a">▼</text>
    <text x="248" y="174" fill="#245d63">▲</text>
    <text x="296" y="222" fill="#245d63">▲</text>
  </g>
</svg>
