<svg xmlns="http://www.w3.org/2000/svg" viewBox="0 0 640 360" role="img" aria-label="Gomoku board preview">
  <rect width="640" height="360" fill="#f3d28f"/>
  <g stroke="#6e5126" stroke-width="3" opacity=".78">
    <path d="M110 50v260M160 50v260M210 50v260M260 50v260M310 50v260M360 50v260M410 50v260M460 50v260M510 50v260"/>
    <path d="M90 70h440M90 120h440M90 170h440M90 220h440M90 270h440"/>
  </g>
  <g>
    <circle cx="260" cy="170" r="18" fill="#1f2a3d"/>
    <circle cx="310" cy="170" r="18" fill="#f8fafc" stroke="#1f2a3d" stroke-width="4"/>
    <circle cx="360" cy="170" r="18" fill="#1f2a3d"/>
    <circle cx="410" cy="170" r="18" fill="#1f2a3d"/>
    <circle cx="460" cy="170" r="18" fill="#1f2a3d"/>
    <circle cx="360" cy="220" r="18" fill="#f8fafc" stroke="#1f2a3d" stroke-width="4"/>
  </g>
</svg>
