<svg xmlns="http://www.w3.org/2000/svg" viewBox="0 0 640 360" role="img" aria-label="Hex board preview">
  <rect width="640" height="360" fill="#eef7f5"/>
  <g stroke="#245d63" stroke-width="4" fill="#ffffff">
    <polygon points="160,70 188,86 188,118 160,134 132,118 132,86"/>
    <polygon points="216,70 244,86 244,118 216,134 188,118 188,86"/>
    <polygon points="272,70 300,86 300,118 272,134 244,118 244,86"/>
    <polygon points="188,118 216,134 216,166 188,182 160,166 160,134"/>
    <polygon points="244,118 272,134 272,166 244,182 216,166 216,134"/>
    <polygon points="300,118 328,134 328,166 300,182 272,166 272,134"/>
    <polygon points="216,166 244,182 244,214 216,230 188,214 188,182"/>
    <polygon points="272,166 300,182 300,214 272,230 244,214 244,182"/>
    <polygon points="328,166 356,182 356,214 328,230 300,214 300,182"/>
  </g>
  <g fill="#b74f2a">
    <circle cx="160" cy="102" r="13"/>
    <circle cx="188" cy="150" r="13"/>
    <circle cx="216" cy="198" r="13"/>
  </g>
  <g fill="#245d63">
    <circle cx="272" cy="102" r="13"/>
    <circle cx="244" cy="150" r="13"/>
    <circle cx="300" cy="198" r="13"/>
  </g>
</svg>
